<?xml version="1.0" encoding="UTF-8"?>
<!DOCTYPE svg PUBLIC "-//W3C//DTD SVG 1.1//EN" "http://www.w3.org/Graphics/SVG/1.1/DTD/svg11.dtd">
<!-- Creator: CorelDRAW X7 -->
<svg xmlns="http://www.w3.org/2000/svg" xml:space="preserve" width="123.01mm" height="63.5032mm" version="1.1" style="shape-rendering:geometricPrecision; text-rendering:geometricPrecision; image-rendering:optimizeQuality; fill-rule:evenodd; clip-rule:evenodd"
viewBox="0 0 6009 3102"
 xmlns:xlink="http://www.w3.org/1999/xlink">
 <defs>
  <style type="text/css">
   <![CDATA[
    .fil0 {fill:#204D74}
   ]]>
  </style>
 </defs>
 <g id="Camada_x0020_1">
  <metadata id="CorelCorpID_0Corel-Layer"/>
  <path class="fil0" d="M0 0l6009 0 0 3102 -6009 0 0 -3102zm1987 1916c28,25 54,52 76,83l0 0 0 0c54,76 86,169 86,269 0,154 -76,291 -192,375l481 0c207,0 375,-168 375,-375 0,-92 -33,-176 -87,-241l-666 -723 -411 0 0 0c-255,0 -461,-207 -461,-462 0,-131 54,-249 141,-332l-43 -47 -638 0 1339 1453zm-588 -1462c72,-46 158,-73 250,-73l0 0 804 0 0 0c255,0 462,206 462,461 0,255 -207,462 -462,462l0 0 -274 0 598 651c76,81 123,192 123,313 0,255 -207,461 -462,461l-750 0 0 0c-255,0 -462,-206 -462,-461 0,-95 29,-182 77,-255l-326 0 0 0 -2 0c-261,0 -473,-212 -473,-473 0,-261 212,-473 473,-473 40,0 80,5 118,15l0 0 -636 -709 867 0 75 81zm-424 711c207,0 375,168 375,375 0,207 -168,375 -375,375 -207,0 -375,-168 -375,-375 0,-207 168,-375 375,-375zm713 728c207,0 375,168 375,375 0,207 -168,375 -375,375 -207,0 -375,-168 -375,-375 0,-207 168,-375 375,-375zm-39 -1426c207,0 375,168 375,375 0,207 -168,375 -375,375 -207,0 -375,-168 -375,-375 0,-207 168,-375 375,-375zm1718 1180l0 -72 201 0 0 356c-88,17 -167,25 -236,25 -106,0 -179,-30 -220,-91 -41,-61 -61,-155 -61,-282 0,-126 20,-220 61,-282 41,-61 114,-91 218,-91 65,0 132,7 202,21l36 6 -3 67c-87,-15 -162,-22 -226,-22 -80,0 -134,23 -162,70 -28,46 -42,123 -42,231 0,108 14,186 42,232 28,47 81,70 161,70 49,0 99,-5 150,-15l0 -223 -121 0zm345 299l0 -525 78 0 0 72c61,-42 125,-70 192,-83l0 80c-30,5 -60,14 -92,26 -32,12 -56,22 -73,31l-26 14 0 385 -79 0zm733 -366l0 268c2,26 23,41 61,46l-3 62c-55,0 -97,-14 -125,-42 -63,28 -126,42 -189,42 -48,0 -84,-13 -110,-41 -25,-27 -37,-66 -37,-117 0,-51 13,-89 38,-113 26,-24 67,-39 122,-44l165 -16 0 -45c0,-36 -8,-61 -23,-77 -16,-15 -37,-23 -63,-23 -56,0 -114,4 -174,11l-33 3 -3 -60c77,-15 145,-23 204,-23 60,0 103,14 130,41 27,27 40,70 40,128zm-323 214c0,64 27,96 80,96 48,0 94,-8 141,-24l24 -8 0 -173 -156 14c-31,3 -54,12 -68,28 -14,15 -21,37 -21,67zm579 -304l0 456 -79 0 0 -456 -66 0 0 -69 66 0 0 -47c0,-74 11,-124 32,-151 21,-27 58,-41 110,-41l106 8 -1 65c-39,-2 -72,-2 -97,-2 -26,0 -44,8 -55,25 -11,17 -16,49 -16,97l0 46 152 0 0 69 -152 0zm246 456l0 -525 79 0 0 525 -79 0zm0 -643l0 -91 79 0 0 91 -79 0zm178 118l86 0 128 206 127 -206 86 0 -166 260 165 265 -86 0 -126 -205 -128 205 -86 0 164 -262 -164 -263z"/>
 </g>
</svg>
