<?xml version="1.0" encoding="UTF-8"?>
<!DOCTYPE svg PUBLIC "-//W3C//DTD SVG 1.1//EN" "http://www.w3.org/Graphics/SVG/1.1/DTD/svg11.dtd">
<!-- Creator: CorelDRAW X7 -->
<svg xmlns="http://www.w3.org/2000/svg" xml:space="preserve" width="85mm" height="85mm" version="1.1" style="shape-rendering:geometricPrecision; text-rendering:geometricPrecision; image-rendering:optimizeQuality; fill-rule:evenodd; clip-rule:evenodd"
viewBox="0 0 2862 2862"
 xmlns:xlink="http://www.w3.org/1999/xlink">
 <defs>
  <style type="text/css">
   <![CDATA[
    .fil0 {fill:#204D74}
   ]]>
  </style>
 </defs>
 <g id="Camada_x0020_1">
  <metadata id="CorelCorpID_0Corel-Layer"/>
  <path class="fil0" d="M0 0l2862 0 0 2862 -2862 0 0 -2862zm787 2345l0 -49 138 0 0 245c-60,12 -115,18 -162,18 -73,0 -124,-21 -152,-63 -28,-42 -42,-107 -42,-194 0,-88 14,-153 42,-195 28,-42 78,-63 150,-63 45,0 92,5 140,14l24 5 -2 46c-60,-10 -111,-15 -155,-15 -56,0 -93,16 -112,48 -20,32 -29,85 -29,160 0,74 9,127 29,159 19,32 56,48 111,48 34,0 68,-3 103,-10l0 -154 -83 0zm238 206l0 -361 53 0 0 49c42,-29 86,-48 133,-57l0 55c-20,4 -42,10 -63,18 -22,8 -39,15 -51,22l-18 9 0 265 -54 0zm505 -252l0 185c2,18 16,29 42,32l-2 43c-38,0 -67,-10 -86,-29 -43,19 -87,29 -130,29 -33,0 -59,-10 -76,-29 -17,-18 -26,-45 -26,-81 0,-35 9,-61 27,-77 17,-17 45,-27 84,-31l113 -11 0 -31c0,-24 -5,-42 -16,-53 -11,-10 -25,-16 -43,-16 -39,0 -79,3 -120,8l-23 2 -2 -41c53,-11 100,-16 141,-16 41,0 71,9 89,28 19,19 28,48 28,88zm-222 148c0,44 18,66 55,66 32,0 65,-5 96,-17l17 -5 0 -120 -107 11c-22,1 -37,8 -47,18 -10,11 -14,26 -14,47zm399 -210l0 314 -55 0 0 -314 -45 0 0 -47 45 0 0 -33c0,-51 8,-85 22,-104 14,-18 40,-28 76,-28l73 5 -1 45c-27,-1 -49,-1 -67,-1 -17,0 -30,5 -37,17 -8,12 -11,34 -11,67l0 32 104 0 0 47 -104 0zm169 314l0 -361 55 0 0 361 -55 0zm0 -443l0 -63 55 0 0 63 -55 0zm122 82l60 0 88 142 88 -142 59 0 -115 179 115 182 -60 0 -87 -141 -88 141 -60 0 114 -180 -114 -181zm-359 -822c19,16 37,35 52,56l0 1 0 0c37,52 60,116 60,185 0,106 -53,201 -133,258l332 0c143,0 258,-115 258,-258 0,-63 -22,-121 -60,-166l-459 -499 -283 0 0 0c-176,0 -318,-142 -318,-318 0,-90 37,-171 97,-229l-29 -32 -440 0 923 1002zm-406 -1008c50,-32 109,-51 173,-51l0 0 554 0 0 0c176,0 318,142 318,318 0,176 -142,318 -318,318l0 0 -189 0 412 449c53,56 85,132 85,216 0,176 -143,318 -318,318l-518 0 0 0c-175,0 -318,-142 -318,-318 0,-65 20,-126 53,-176l-225 0 0 0 -1 0c-180,0 -326,-146 -326,-326 0,-180 146,-326 326,-326 28,0 55,4 81,10l0 0 -438 -488 598 0 51 56zm-292 489c143,0 259,116 259,259 0,143 -116,259 -259,259 -143,0 -259,-116 -259,-259 0,-143 116,-259 259,-259zm491 502c143,0 259,116 259,259 0,143 -116,258 -259,258 -142,0 -258,-115 -258,-258 0,-143 116,-259 258,-259zm-26 -983c143,0 258,116 258,259 0,143 -115,259 -258,259 -143,0 -259,-116 -259,-259 0,-143 116,-259 259,-259z"/>
 </g>
</svg>
