<?xml version="1.0" encoding="UTF-8"?>
<!DOCTYPE svg PUBLIC "-//W3C//DTD SVG 1.1//EN" "http://www.w3.org/Graphics/SVG/1.1/DTD/svg11.dtd">
<!-- Creator: CorelDRAW X7 -->
<svg xmlns="http://www.w3.org/2000/svg" xml:space="preserve" width="104.298mm" height="48.2324mm" version="1.1" style="shape-rendering:geometricPrecision; text-rendering:geometricPrecision; image-rendering:optimizeQuality; fill-rule:evenodd; clip-rule:evenodd"
viewBox="0 0 4667 2158"
 xmlns:xlink="http://www.w3.org/1999/xlink">
 <defs>
  <style type="text/css">
   <![CDATA[
    .fil0 {fill:#FEFEFE}
   ]]>
  </style>
 </defs>
 <g id="Camada_x0020_1">
  <metadata id="CorelCorpID_0Corel-Layer"/>
  <path class="fil0" d="M1401 1414c26,22 50,47 70,75l0 0 0 0c50,70 79,155 79,247 0,141 -70,267 -177,343l442 0c189,0 343,-154 343,-343 0,-84 -30,-162 -80,-221l-610 -663 -376 0 0 0c-234,0 -423,-189 -423,-422 0,-120 50,-228 130,-305l-39 -43 -585 0 1226 1332zm-539 -1339c66,-43 145,-68 230,-68l0 0 736 0 0 0c234,0 423,189 423,423 0,233 -189,422 -423,422l0 0 -251 0 548 597c69,74 112,175 112,287 0,233 -189,422 -422,422l-688 0 0 0c-233,0 -422,-189 -422,-422 0,-87 25,-167 70,-234l-299 0 0 0 -2 0c-239,0 -433,-194 -433,-433 0,-239 194,-433 433,-433 37,0 74,4 108,13l0 0 -582 -649 794 0 68 75zm-388 650c190,0 344,154 344,344 0,190 -154,344 -344,344 -190,0 -343,-154 -343,-344 0,-190 153,-344 343,-344zm653 667c190,0 344,154 344,344 0,189 -154,343 -344,343 -190,0 -343,-154 -343,-343 0,-190 153,-344 343,-344zm-35 -1306c190,0 343,154 343,344 0,189 -153,343 -343,343 -190,0 -344,-154 -344,-343 0,-190 154,-344 344,-344zm1574 1081l0 -66 183 0 0 326c-80,15 -152,23 -216,23 -97,0 -164,-28 -201,-83 -38,-56 -56,-142 -56,-258 0,-116 18,-203 56,-259 37,-56 104,-84 199,-84 60,0 122,7 186,20l32 5 -3 62c-79,-14 -148,-20 -206,-20 -74,0 -123,21 -149,63 -26,43 -38,114 -38,213 0,99 12,169 38,212 26,43 75,64 148,64 45,0 90,-5 137,-14l0 -204 -110 0zm316 273l0 -480 71 0 0 66c55,-39 114,-64 176,-76l0 73c-27,5 -55,13 -85,24 -29,11 -51,20 -66,29l-24 12 0 352 -72 0zm671 -335l0 246c2,24 20,38 56,42l-3 57c-51,0 -89,-13 -114,-38 -58,25 -116,38 -173,38 -45,0 -78,-12 -101,-37 -23,-25 -35,-61 -35,-108 0,-47 12,-81 36,-103 23,-22 61,-36 111,-41l151 -14 0 -42c0,-32 -7,-56 -21,-70 -14,-14 -33,-21 -58,-21 -51,0 -104,3 -159,10l-30 3 -3 -55c71,-14 133,-21 187,-21 55,0 94,12 119,37 25,25 37,64 37,117zm-296 196c0,59 25,89 73,89 44,0 87,-8 129,-22l22 -8 0 -159 -142 14c-29,2 -50,11 -63,25 -12,14 -19,34 -19,61zm530 -278l0 417 -72 0 0 -417 -60 0 0 -63 60 0 0 -43c0,-68 10,-114 29,-139 19,-24 53,-37 101,-37l97 7 -1 60c-36,-2 -66,-2 -89,-2 -23,0 -40,7 -50,23 -10,15 -15,45 -15,89l0 42 140 0 0 63 -140 0zm226 417l0 -480 72 0 0 480 -72 0zm0 -588l0 -84 72 0 0 84 -72 0zm162 108l79 0 117 189 117 -189 79 0 -153 239 152 241 -79 0 -116 -187 -117 187 -79 0 151 -240 -151 -240z"/>
 </g>
</svg>
