<?xml version="1.0" encoding="UTF-8"?>
<!DOCTYPE svg PUBLIC "-//W3C//DTD SVG 1.1//EN" "http://www.w3.org/Graphics/SVG/1.1/DTD/svg11.dtd">
<!-- Creator: CorelDRAW X7 -->
<svg xmlns="http://www.w3.org/2000/svg" xml:space="preserve" width="104.298mm" height="48.2324mm" version="1.1" style="shape-rendering:geometricPrecision; text-rendering:geometricPrecision; image-rendering:optimizeQuality; fill-rule:evenodd; clip-rule:evenodd"
viewBox="0 0 25253 11678"
 xmlns:xlink="http://www.w3.org/1999/xlink">
 <defs>
  <style type="text/css">
   <![CDATA[
    .fil0 {fill:#BDBFC1}
   ]]>
  </style>
 </defs>
 <g id="Camada_x0020_1">
  <metadata id="CorelCorpID_0Corel-Layer"/>
  <path class="fil0" d="M7581 7649c142,120 268,258 377,409l1 1 0 0c269,375 428,835 428,1332 0,766 -377,1444 -956,1859l2387 0c1027,0 1860,-832 1860,-1859 0,-455 -163,-872 -435,-1195l-3299 -3584 -2036 0 0 0c-1264,0 -2288,-1024 -2288,-2288 0,-647 269,-1231 702,-1647l-212 -231 -3162 0 6633 7203zm-2915 -7246c358,-231 784,-366 1242,-366l0 0 3985 0 0 0c1263,0 2287,1024 2287,2287 0,1264 -1024,2288 -2287,2288l0 0 -1360 0 2966 3227c375,404 607,951 607,1552 0,1263 -1024,2287 -2288,2287l-3719 0 0 0c-1263,0 -2287,-1024 -2287,-2287 0,-468 140,-903 381,-1265l-1618 0 1 0 -10 0c-1294,0 -2343,-1049 -2343,-2343 0,-1294 1049,-2343 2343,-2343 202,0 397,26 584,73l-1 0 -3149 -3513 4296 0 370 403zm-2100 3521c1027,0 1860,832 1860,1859 0,1027 -833,1860 -1860,1860 -1027,0 -1859,-833 -1859,-1860 0,-1027 832,-1859 1859,-1859zm3533 3607c1027,0 1860,833 1860,1860 0,1027 -833,1859 -1860,1859 -1027,0 -1859,-832 -1859,-1859 0,-1027 832,-1860 1859,-1860zm-191 -7066c1027,0 1859,832 1859,1859 0,1027 -832,1860 -1859,1860 -1027,0 -1860,-833 -1860,-1860 0,-1027 833,-1859 1860,-1859zm8516 5848l0 -358 992 0 0 1766c-436,84 -826,125 -1169,125 -523,0 -886,-151 -1088,-452 -203,-301 -304,-766 -304,-1395 0,-629 101,-1095 304,-1398 202,-303 562,-454 1078,-454 322,0 656,34 1003,103l176 32 -15 332c-430,-73 -802,-109 -1117,-109 -399,0 -667,115 -806,346 -138,230 -208,613 -208,1148 0,535 70,918 208,1148 139,231 406,346 800,346 243,0 491,-24 743,-73l0 -1107 -597 0zm1709 1481l0 -2598 385 0 0 354c301,-208 618,-345 951,-411l0 395c-146,28 -297,71 -455,130 -157,59 -278,111 -361,156l-130 67 0 1907 -390 0zm3632 -1813l0 1330c11,128 111,204 302,229l-16 306c-273,0 -480,-69 -618,-208 -312,139 -624,208 -935,208 -239,0 -421,-67 -546,-202 -125,-136 -187,-330 -187,-582 0,-253 64,-439 192,-559 128,-120 329,-193 603,-221l816 -78 0 -223c0,-177 -38,-303 -115,-380 -76,-76 -180,-114 -311,-114 -277,0 -565,17 -863,52l-161 16 -16 -296c382,-77 719,-115 1014,-115 294,0 508,68 641,203 134,135 200,346 200,634zm-1600 1060c0,318 132,478 395,478 236,0 468,-40 696,-120l120 -41 0 -858 -769 73c-156,14 -269,59 -338,135 -69,76 -104,187 -104,333zm2868 -1507l0 2260 -389 0 0 -2260 -328 0 0 -338 328 0 0 -234c0,-367 52,-617 156,-750 103,-134 285,-201 545,-201l525 37 -5 322c-194,-7 -355,-10 -481,-10 -126,0 -216,41 -270,124 -54,83 -81,245 -81,484l0 228 754 0 0 338 -754 0zm1221 2260l0 -2598 390 0 0 2598 -390 0zm0 -3185l0 -452 390 0 0 452 -390 0zm879 587l426 0 634 1019 633 -1019 427 0 -827 1289 821 1309 -426 0 -628 -1013 -634 1013 -426 0 815 -1299 -815 -1299z"/>
 </g>
</svg>
