<?xml version="1.0" encoding="UTF-8"?>
<!DOCTYPE svg PUBLIC "-//W3C//DTD SVG 1.1//EN" "http://www.w3.org/Graphics/SVG/1.1/DTD/svg11.dtd">
<!-- Creator: CorelDRAW X7 -->
<svg xmlns="http://www.w3.org/2000/svg" xml:space="preserve" width="51.2054mm" height="66.96mm" version="1.1" style="shape-rendering:geometricPrecision; text-rendering:geometricPrecision; image-rendering:optimizeQuality; fill-rule:evenodd; clip-rule:evenodd"
viewBox="0 0 3479 4550"
 xmlns:xlink="http://www.w3.org/1999/xlink">
 <defs>
  <style type="text/css">
   <![CDATA[
    .fil0 {fill:#BDBFC1}
   ]]>
  </style>
 </defs>
 <g id="Camada_x0020_1">
  <metadata id="CorelCorpID_0Corel-Layer"/>
  <path class="fil0" d="M2158 2147c40,33 75,72 106,114l0 1 0 0c76,105 120,234 120,373 0,216 -106,406 -268,522l670 0c288,0 522,-233 522,-522 0,-127 -46,-244 -122,-335l-926 -1006 -572 0 0 0c-354,0 -641,-287 -641,-642 0,-181 75,-345 196,-462l-59 -65 -887 0 1861 2022zm-818 -2034c100,-65 220,-103 348,-103l0 0 1119 0 0 0c354,0 642,288 642,642 0,355 -288,642 -642,642l0 0 -382 0 833 906c105,113 170,267 170,435 0,355 -287,642 -642,642l-1044 0 0 0c-354,0 -642,-287 -642,-642 0,-131 40,-253 107,-354l-454 0 0 0 -2 0c-363,0 -658,-295 -658,-658 0,-363 295,-658 658,-658 56,0 111,8 163,21l0 0 -883 -986 1205 0 104 113zm-589 988c288,0 522,234 522,522 0,288 -234,522 -522,522 -289,0 -522,-234 -522,-522 0,-288 233,-522 522,-522zm991 1013c288,0 522,233 522,521 0,289 -234,522 -522,522 -288,0 -522,-233 -522,-522 0,-288 234,-521 522,-521zm-54 -1984c289,0 522,234 522,522 0,289 -233,522 -522,522 -288,0 -521,-233 -521,-522 0,-288 233,-522 521,-522zm-1248 3990l0 -101 279 0 0 496c-123,23 -232,35 -328,35 -147,0 -249,-42 -306,-127 -57,-85 -85,-215 -85,-391 0,-177 28,-308 85,-393 57,-85 158,-127 303,-127 90,0 184,9 281,29l50 9 -4 93c-121,-21 -226,-31 -314,-31 -112,0 -187,33 -226,97 -39,65 -58,172 -58,323 0,150 19,257 58,322 39,64 114,97 225,97 68,0 137,-7 208,-21l0 -310 -168 0zm480 415l0 -729 108 0 0 99c85,-58 174,-96 267,-115l0 111c-41,8 -83,20 -128,36 -44,17 -78,32 -101,44l-36 19 0 535 -110 0zm1019 -509l0 374c3,36 32,57 85,64l-4 86c-77,0 -135,-20 -174,-58 -87,38 -175,58 -262,58 -67,0 -118,-19 -153,-57 -35,-38 -53,-92 -53,-163 0,-71 18,-123 54,-157 36,-34 92,-54 169,-62l229 -22 0 -63c0,-49 -11,-85 -32,-106 -21,-21 -51,-32 -87,-32 -78,0 -159,5 -243,14l-45 5 -4 -83c107,-22 202,-32 284,-32 83,0 143,19 180,57 38,37 56,97 56,177zm-449 298c0,89 37,134 111,134 66,0 131,-11 196,-33l33 -12 0 -241 -216 21c-43,4 -75,16 -94,38 -20,21 -30,52 -30,93zm805 -423l0 634 -109 0 0 -634 -92 0 0 -95 92 0 0 -65c0,-103 15,-174 44,-211 29,-38 80,-56 153,-56l147 10 -1 90c-55,-2 -100,-3 -135,-3 -36,0 -61,12 -76,35 -15,24 -23,69 -23,136l0 64 212 0 0 95 -212 0zm343 634l0 -729 109 0 0 729 -109 0zm0 -894l0 -126 109 0 0 126 -109 0zm246 165l120 0 178 286 178 -286 119 0 -231 362 230 367 -120 0 -176 -284 -178 284 -120 0 229 -364 -229 -365z"/>
 </g>
</svg>
