<?xml version="1.0" encoding="UTF-8"?>
<!DOCTYPE svg PUBLIC "-//W3C//DTD SVG 1.1//EN" "http://www.w3.org/Graphics/SVG/1.1/DTD/svg11.dtd">
<!-- Creator: CorelDRAW X7 -->
<svg xmlns="http://www.w3.org/2000/svg" xml:space="preserve" width="51.2054mm" height="66.96mm" version="1.1" style="shape-rendering:geometricPrecision; text-rendering:geometricPrecision; image-rendering:optimizeQuality; fill-rule:evenodd; clip-rule:evenodd"
viewBox="0 0 1199 1568"
 xmlns:xlink="http://www.w3.org/1999/xlink">
 <defs>
  <style type="text/css">
   <![CDATA[
    .fil0 {fill:#FEFEFE}
   ]]>
  </style>
 </defs>
 <g id="Camada_x0020_1">
  <metadata id="CorelCorpID_0Corel-Layer"/>
  <path class="fil0" d="M152 1420l0 -35 96 0 0 171c-42,8 -80,12 -113,12 -51,0 -86,-14 -106,-43 -19,-30 -29,-75 -29,-135 0,-61 10,-106 29,-136 20,-29 55,-44 105,-44 31,0 63,4 97,10l17 4 -2 32c-41,-7 -77,-11 -108,-11 -38,0 -64,11 -78,34 -13,22 -20,59 -20,111 0,51 7,88 20,111 14,22 40,33 78,33 23,0 47,-2 72,-7l0 -107 -58 0zm165 143l0 -251 37 0 0 34c30,-20 60,-33 92,-40l0 39c-14,2 -28,7 -44,12 -15,6 -27,11 -35,15l-12 7 0 184 -38 0zm352 -175l0 129c1,12 10,19 29,22l-2 29c-26,0 -46,-6 -60,-20 -30,14 -60,20 -90,20 -23,0 -41,-6 -53,-19 -12,-13 -18,-32 -18,-57 0,-24 6,-42 19,-54 12,-11 31,-18 58,-21l79 -8 0 -21c0,-17 -4,-29 -11,-37 -8,-7 -18,-11 -30,-11 -27,0 -55,2 -84,5l-15 2 -2 -29c37,-7 70,-11 98,-11 29,0 49,6 62,20 13,13 20,33 20,61zm-155 102c0,31 12,47 38,47 23,0 45,-4 67,-12l12 -4 0 -83 -75 7c-15,2 -26,6 -32,13 -7,8 -10,18 -10,32zm277 -145l0 218 -38 0 0 -218 -31 0 0 -33 31 0 0 -23c0,-35 5,-59 16,-72 10,-13 27,-20 52,-20l51 4 0 31c-19,-1 -35,-1 -47,-1 -12,0 -21,4 -26,12 -5,8 -8,24 -8,47l0 22 73 0 0 33 -73 0zm118 218l0 -251 38 0 0 251 -38 0zm0 -308l0 -44 38 0 0 44 -38 0zm85 57l41 0 62 98 61 -98 41 0 -80 125 80 126 -41 0 -61 -98 -62 98 -41 0 79 -125 -79 -126zm-250 -572c14,12 26,25 36,39l0 1 0 0c26,36 42,80 42,128 0,75 -37,140 -93,180l231 0c100,0 180,-80 180,-180 0,-44 -16,-84 -42,-115l-319 -347 -197 0 0 0c-122,0 -221,-99 -221,-221 0,-63 26,-119 68,-160l-21 -22 -306 0 642 697zm-282 -701c34,-22 76,-35 120,-35l0 0 386 0 0 0c122,0 221,99 221,221 0,122 -99,221 -221,221l0 0 -132 0 287 312c36,39 59,92 59,150 0,123 -99,222 -222,222l-359 0 0 0c-123,0 -222,-99 -222,-222 0,-45 14,-87 37,-122l-156 0 0 0 -1 0c-125,0 -227,-101 -227,-227 0,-125 102,-226 227,-226 19,0 38,2 56,7l0 0 -304 -340 415 0 36 39zm-203 341c99,0 180,80 180,179 0,100 -81,180 -180,180 -100,0 -180,-80 -180,-180 0,-99 80,-179 180,-179zm342 349c99,0 179,80 179,179 0,100 -80,180 -179,180 -100,0 -180,-80 -180,-180 0,-99 80,-179 180,-179zm-19 -684c99,0 180,81 180,180 0,99 -81,180 -180,180 -99,0 -180,-81 -180,-180 0,-99 81,-180 180,-180z"/>
 </g>
</svg>
